<svg width="215" height="23" viewBox="0 0 215 23" fill="none" xmlns="http://www.w3.org/2000/svg">
<g clip-path="url(#clip0_2689_5415)">
<path d="M109.735 7.53223V15.4946C108.181 14.8753 107.076 13.3271 107.076 11.5134C107.076 9.69977 108.181 8.15153 109.735 7.53223Z" fill="white"/>
<path d="M115.373 11.5134C115.373 13.3382 114.269 14.8864 112.704 15.4946V7.53223C114.269 8.14047 115.362 9.69977 115.373 11.5134Z" fill="white"/>
<path d="M114.57 4.16992H111.204C107.259 4.16992 104 7.20006 104 11.5904C104 15.6048 107.259 18.9004 111.204 18.8893H114.57C118.472 18.9114 122.041 15.6048 122.041 11.5904C122.041 7.20006 118.472 4.16992 114.57 4.16992ZM111.225 18.2479C107.613 18.2479 104.686 15.2288 104.686 11.513C104.686 7.79724 107.613 4.77816 111.225 4.77816C114.838 4.77816 117.764 7.79724 117.764 11.513C117.764 15.2399 114.838 18.2479 111.225 18.2479Z" fill="white"/>
<path d="M158.671 15.7928C158.649 15.8813 158.606 16.0029 158.542 16.0914C158.467 16.202 158.317 16.3015 158.145 16.3236C157.953 16.3457 157.77 16.3457 157.609 16.3347C157.481 16.3126 157.363 16.2683 157.363 16.1024V13.9238C157.363 13.7027 157.481 13.6916 157.642 13.6916H157.749V13.57C157.534 13.57 157.331 13.581 157.127 13.581C156.913 13.581 156.698 13.57 156.484 13.57V13.6916H156.537C156.688 13.6916 156.848 13.7137 156.848 13.9349V16.1024C156.848 16.3679 156.688 16.39 156.537 16.39H156.484V16.5116C156.848 16.5116 157.202 16.5006 157.567 16.5006C157.92 16.5006 158.285 16.5116 158.649 16.5116C158.703 16.2683 158.756 16.0361 158.799 15.7928H158.671ZM156.302 16.3789C156.173 16.3789 156.077 16.3236 156.034 16.213C155.98 16.0803 155.937 15.9255 155.884 15.7817L155.133 13.581C155.122 13.5478 155.112 13.5147 155.101 13.4704C155.09 13.4594 155.08 13.4594 155.069 13.4594C155.058 13.4594 155.047 13.4594 155.037 13.4704C154.962 13.5147 154.79 13.6031 154.662 13.6474C154.64 13.8022 154.565 14.0123 154.511 14.1671L153.858 16.1024C153.793 16.2794 153.665 16.3789 153.504 16.3789H153.482V16.5006C153.632 16.4895 153.772 16.4895 153.922 16.4895C154.083 16.4895 154.254 16.5006 154.415 16.5006V16.3789H154.372C154.243 16.3789 154.061 16.3568 154.061 16.2352C154.061 16.1577 154.115 16.0472 154.147 15.9034L154.276 15.461H155.208L155.369 15.9476C155.412 16.0803 155.455 16.1909 155.455 16.2462C155.455 16.3568 155.294 16.3679 155.198 16.3679H155.155V16.4895C155.369 16.4785 155.573 16.4785 155.766 16.4785C155.959 16.4785 156.152 16.4895 156.334 16.4895V16.3679H156.302V16.3789ZM154.361 15.2288L154.737 14.0344H154.747L155.122 15.2288H154.361ZM152.989 13.581C152.796 13.581 152.614 13.57 152.421 13.57V13.6916H152.507C152.625 13.6916 152.861 13.7469 152.861 14.0897V15.6712L152.85 15.6822L151.028 13.57C150.899 13.57 150.792 13.581 150.663 13.581C150.502 13.581 150.352 13.57 150.191 13.57V13.6916H150.245C150.427 13.6916 150.62 13.8354 150.62 14.0676V15.837C150.62 16.1688 150.534 16.3679 150.256 16.3679H150.202V16.4895C150.384 16.4895 150.577 16.4785 150.76 16.4785C150.931 16.4785 151.113 16.4895 151.285 16.4895V16.3679H151.21C150.899 16.3679 150.824 16.2462 150.824 15.8702V14.1561L152.936 16.578H153.096C153.075 16.4453 153.075 16.3015 153.075 16.1577V14.2335C153.075 13.7358 153.268 13.7027 153.439 13.7027H153.504V13.57C153.322 13.57 153.161 13.581 152.989 13.581ZM148.53 13.5036C147.683 13.5036 147.018 14.1782 147.018 15.0519C147.018 15.9587 147.683 16.5669 148.551 16.5669C149.42 16.5669 150.095 15.9255 150.095 14.9523C150.095 14.0566 149.398 13.5036 148.53 13.5036ZM148.594 16.39C147.929 16.39 147.597 15.6712 147.597 14.9191C147.597 14.3551 147.812 13.7027 148.53 13.7027C149.205 13.7027 149.527 14.4436 149.527 15.0629C149.527 15.6601 149.387 16.39 148.594 16.39ZM146.847 13.6916H146.9V13.57C146.707 13.57 146.461 13.581 146.257 13.581C146.054 13.581 145.807 13.57 145.657 13.57V13.6916H145.71C145.861 13.6916 146.011 13.7137 146.011 13.9349V16.1467C146.011 16.3679 145.861 16.39 145.71 16.39H145.657V16.5116C145.818 16.5116 146.054 16.5006 146.257 16.5006C146.461 16.5006 146.707 16.5116 146.9 16.5116V16.39H146.847C146.697 16.39 146.547 16.3679 146.547 16.1467V13.9349C146.536 13.7137 146.697 13.6916 146.847 13.6916ZM145.4 13.4373C145.389 13.5589 145.292 13.57 145.174 13.57H143.063C142.955 13.57 142.848 13.57 142.816 13.4483H142.72C142.72 13.57 142.709 13.6916 142.698 13.8022C142.687 13.9238 142.666 14.0455 142.645 14.1561H142.763C142.827 13.8464 142.838 13.769 143.138 13.769H143.802V16.014C143.802 16.3457 143.684 16.3679 143.459 16.3679H143.384V16.4895C143.545 16.4895 143.835 16.4785 144.07 16.4785C144.295 16.4785 144.574 16.4895 144.735 16.4895V16.3679H144.66C144.467 16.3679 144.317 16.3347 144.317 16.0029V13.7801H144.982C145.26 13.7801 145.282 14.0344 145.282 14.1893L145.4 14.145C145.4 14.0344 145.4 13.9238 145.41 13.8022C145.421 13.6916 145.442 13.57 145.453 13.4594L145.4 13.4373ZM142.955 16.3789C142.816 16.3789 142.73 16.3236 142.687 16.213C142.634 16.0803 142.591 15.9255 142.537 15.7817L141.787 13.581C141.776 13.5478 141.766 13.5147 141.755 13.4704C141.744 13.4594 141.733 13.4594 141.723 13.4594C141.712 13.4594 141.701 13.4594 141.691 13.4704C141.616 13.5147 141.455 13.6031 141.315 13.6474C141.294 13.8022 141.219 14.0123 141.165 14.1671L140.511 16.1024C140.447 16.2794 140.318 16.3789 140.158 16.3789H140.125V16.5006C140.276 16.4895 140.426 16.4895 140.565 16.4895C140.726 16.4895 140.897 16.5006 141.058 16.5006V16.3789H141.015C140.876 16.3789 140.704 16.3568 140.704 16.2352C140.704 16.1577 140.758 16.0472 140.79 15.9034L140.919 15.461H141.851L142.012 15.9476C142.055 16.0803 142.098 16.1909 142.098 16.2462C142.098 16.3568 141.937 16.3679 141.841 16.3679H141.798V16.4895C142.001 16.4785 142.205 16.4785 142.409 16.4785C142.602 16.4785 142.784 16.4895 142.977 16.4895V16.3679H142.955V16.3789ZM141.004 15.2288L141.38 14.0344H141.39L141.766 15.2288H141.004ZM139.643 13.581C139.45 13.581 139.268 13.57 139.075 13.57V13.6916H139.161C139.279 13.6916 139.514 13.7469 139.514 14.0897V15.6712L139.504 15.6822L137.681 13.57C137.553 13.57 137.435 13.581 137.317 13.581C137.156 13.581 136.995 13.57 136.845 13.57V13.6916H136.899C137.081 13.6916 137.274 13.8354 137.274 14.0676V15.837C137.274 16.1688 137.188 16.3679 136.91 16.3679H136.856V16.4895C137.038 16.4895 137.231 16.4785 137.413 16.4785C137.585 16.4785 137.767 16.4895 137.939 16.4895V16.3679H137.874C137.563 16.3679 137.488 16.2462 137.488 15.8702V14.1561L139.6 16.578H139.75C139.729 16.4453 139.729 16.3015 139.729 16.1577V14.2335C139.729 13.7358 139.922 13.7027 140.093 13.7027H140.158V13.57C139.975 13.57 139.804 13.581 139.643 13.581ZM136.331 16.1246L135.634 15.0519C135.955 14.9191 136.202 14.6869 136.202 14.3109C136.202 13.7137 135.741 13.57 135.227 13.57C135.012 13.57 134.808 13.581 134.573 13.581C134.326 13.581 134.069 13.57 133.94 13.57V13.6916H134.015C134.144 13.6916 134.305 13.7027 134.305 14.0123V16.1467C134.305 16.3015 134.165 16.3679 134.015 16.3679H133.94V16.4895C134.144 16.4895 134.337 16.4785 134.53 16.4785C134.766 16.4785 135.001 16.4895 135.237 16.4895V16.3679H135.162C134.969 16.3679 134.83 16.3568 134.83 16.0361V15.1403H135.098C135.366 15.6269 135.634 16.0803 135.945 16.5006C136.073 16.5006 136.202 16.4895 136.331 16.4895C136.47 16.4895 136.599 16.5006 136.727 16.5006V16.3789C136.524 16.3568 136.449 16.3015 136.331 16.1246ZM135.023 14.9855H134.819V13.7358C134.873 13.7358 134.926 13.7248 135.055 13.7248C135.419 13.7248 135.655 13.9681 135.655 14.3441C135.645 14.8307 135.43 14.9855 135.023 14.9855ZM133.629 15.8039C133.501 16.2794 133.286 16.3236 132.793 16.3236C132.536 16.3236 132.3 16.3236 132.3 16.0472V15.0629H132.793C133.072 15.0629 133.093 15.2288 133.115 15.4832L133.243 15.461C133.233 15.2951 133.233 15.1403 133.233 14.9855C133.233 14.8196 133.233 14.6537 133.243 14.4878H133.115C133.093 14.7201 133.04 14.8528 132.793 14.8528H132.3V13.7469H132.868C133.297 13.7469 133.351 13.9681 133.372 14.2446L133.49 14.2114C133.479 14.0234 133.479 13.7469 133.479 13.57C133.2 13.57 132.772 13.581 132.429 13.581C132.086 13.581 131.657 13.57 131.41 13.57V13.6916H131.464C131.614 13.6916 131.764 13.7137 131.764 13.9349V16.1467C131.764 16.3679 131.603 16.39 131.464 16.39H131.41V16.5116C131.646 16.5116 132.128 16.5006 132.493 16.5006C132.857 16.5006 133.329 16.5116 133.597 16.5116C133.629 16.2904 133.683 16.0693 133.736 15.837L133.629 15.8039ZM131.185 13.4373C131.174 13.5589 131.078 13.57 130.96 13.57H128.848C128.741 13.57 128.634 13.57 128.602 13.4483H128.505C128.505 13.57 128.494 13.6916 128.484 13.8022C128.473 13.9238 128.452 14.0455 128.43 14.1561H128.548C128.612 13.8464 128.623 13.769 128.923 13.769H129.588V16.014C129.588 16.3457 129.47 16.3679 129.245 16.3679H129.191V16.4895C129.352 16.4895 129.641 16.4785 129.888 16.4785C130.113 16.4785 130.392 16.4895 130.553 16.4895V16.3679H130.478C130.285 16.3679 130.135 16.3347 130.135 16.0029V13.7801H130.81C131.078 13.7801 131.099 14.0344 131.11 14.1893L131.228 14.145C131.228 14.0344 131.228 13.9238 131.239 13.8022C131.249 13.6916 131.271 13.57 131.282 13.4594L131.185 13.4373ZM127.83 13.581C127.637 13.581 127.444 13.57 127.262 13.57V13.6916H127.347C127.465 13.6916 127.701 13.7469 127.701 14.0897V15.6712H127.69L125.868 13.57C125.75 13.57 125.622 13.581 125.504 13.581C125.343 13.581 125.193 13.57 125.032 13.57V13.6916H125.086C125.268 13.6916 125.461 13.8354 125.461 14.0676V15.837C125.461 16.1688 125.375 16.3679 125.096 16.3679H125.043V16.4895C125.225 16.4895 125.418 16.4785 125.6 16.4785C125.782 16.4785 125.954 16.4895 126.125 16.4895V16.3679H126.061C125.739 16.3679 125.675 16.2462 125.675 15.8702V14.1561L127.787 16.578H127.937C127.916 16.4453 127.916 16.3015 127.916 16.1577V14.2335C127.916 13.7358 128.109 13.7027 128.28 13.7027H128.344V13.57C128.162 13.57 127.991 13.581 127.83 13.581ZM124.828 13.6916H124.882V13.57C124.689 13.57 124.442 13.581 124.239 13.581C124.035 13.581 123.788 13.57 123.628 13.57V13.6916H123.681C123.831 13.6916 123.981 13.7137 123.981 13.9349V16.1467C123.981 16.3679 123.821 16.39 123.681 16.39H123.628V16.5116C123.788 16.5116 124.024 16.5006 124.228 16.5006C124.432 16.5006 124.678 16.5116 124.871 16.5116V16.39H124.818C124.668 16.39 124.517 16.3679 124.517 16.1467V13.9349C124.528 13.7137 124.678 13.6916 124.828 13.6916ZM157.181 8.33909C156.763 8.33909 156.355 8.63768 156.055 8.89204V6.07201C156.055 6.00566 156.044 5.96143 155.991 5.96143C155.969 5.96143 155.905 6.00566 155.83 6.0499C155.669 6.13837 155.358 6.28213 155.058 6.38166V6.50331C155.348 6.59178 155.455 6.60284 155.455 7.11155V10.4403C155.455 10.9158 155.412 11.3582 155.348 11.8226L155.508 11.9111L155.734 11.7342C155.926 11.8226 156.227 12.0107 156.773 12.0107C157.845 12.0107 158.574 10.9932 158.574 9.98687C158.585 9.12427 158.06 8.33909 157.181 8.33909ZM156.838 11.8005C156.334 11.8005 156.066 11.3029 156.066 11.0043V9.12427C156.269 8.94733 156.505 8.75933 156.784 8.75933C157.374 8.75933 157.985 9.45604 157.985 10.2855C157.985 10.9822 157.642 11.8005 156.838 11.8005ZM154.779 11.6015C154.651 11.6015 154.565 11.5904 154.565 11.4577V8.59345C154.565 8.50498 154.565 8.44968 154.501 8.44968C154.426 8.44968 154.008 8.51603 153.332 8.56027V8.70404C153.6 8.78145 153.965 8.86992 153.965 9.02474V11.1038C153.643 11.3692 153.311 11.5794 153.054 11.5794C152.4 11.5794 152.4 10.9158 152.4 10.6836V8.69298C152.4 8.52709 152.4 8.4718 152.314 8.4718C152.217 8.4718 151.617 8.51603 151.349 8.52709V8.67086C151.767 8.70404 151.799 8.9031 151.799 9.10216V11.0817C151.799 11.7342 152.217 11.9996 152.625 11.9996C153.161 11.9996 153.504 11.7231 153.954 11.3471V11.9775L153.997 11.9996C154.136 11.9554 154.758 11.7895 155.08 11.7563V11.5904C154.983 11.5904 154.865 11.6015 154.779 11.6015ZM151.22 11.6789C151.006 11.6789 150.845 11.6789 150.845 11.4245V6.07201C150.845 6.00566 150.835 5.96143 150.781 5.96143C150.76 5.96143 150.695 6.00566 150.62 6.0499C150.459 6.13837 150.148 6.28213 149.848 6.38166V6.50331C150.138 6.59178 150.245 6.60284 150.245 7.11155V11.4245C150.245 11.6789 150.095 11.6789 149.88 11.6789H149.741V11.8779C150.02 11.8669 150.288 11.8669 150.556 11.8669C150.824 11.8669 151.092 11.8779 151.349 11.8779V11.6789H151.22ZM149.312 10.4071C149.162 11.2255 148.541 11.7452 147.801 11.7452C146.643 11.7452 145.56 10.6172 145.56 9.05792C145.56 7.20002 146.815 6.60284 147.683 6.60284C148.53 6.60284 149.152 6.96779 149.291 7.87462H149.484L149.409 6.76873C148.83 6.55861 148.24 6.35955 147.64 6.35955C146.161 6.35955 144.789 7.49861 144.789 9.08004C144.789 10.8273 145.903 11.9885 147.661 11.9885C148.155 11.9885 149.012 11.7784 149.323 11.5794L149.495 10.4513L149.312 10.4071ZM140.94 9.10216C140.94 8.77039 141.23 8.59345 141.53 8.59345C142.012 8.59345 142.269 8.86992 142.344 9.35651H142.516L142.462 8.57133C142.173 8.4165 141.841 8.35015 141.605 8.35015C140.779 8.35015 140.436 8.9031 140.436 9.34545C140.436 10.5951 142.076 10.2965 142.076 11.2144C142.076 11.4909 141.916 11.7674 141.465 11.7674C140.919 11.7674 140.619 11.3361 140.522 10.8273L140.383 10.8716L140.469 11.7563C140.736 11.9111 141.09 12.0217 141.38 12.0217C142.28 12.0217 142.677 11.4798 142.677 10.9711C142.687 9.73251 140.94 10.009 140.94 9.10216ZM139.772 8.33909C139.311 8.33909 139 8.83674 138.807 9.13533H138.785V8.43862C138.785 8.36121 138.764 8.33909 138.721 8.33909C138.657 8.33909 138.357 8.53815 137.799 8.78145V8.89204C137.917 8.95839 138.185 9.00263 138.185 9.23486V11.4135C138.185 11.6678 138.035 11.6678 137.821 11.6678H137.617V11.8669C137.885 11.8558 138.207 11.8558 138.507 11.8558C138.828 11.8558 139.15 11.8669 139.557 11.8669V11.6678H139.161C138.946 11.6678 138.796 11.6678 138.796 11.4135V9.59981C138.796 9.13533 139.214 8.95839 139.343 8.95839C139.611 8.95839 139.611 9.14639 139.836 9.14639C140.05 9.14639 140.19 8.95839 140.19 8.74827C140.201 8.4718 139.954 8.33909 139.772 8.33909ZM137.392 11.0153C137.113 11.3029 136.792 11.5351 136.374 11.5351C135.773 11.5351 135.312 10.9269 135.269 10.197C135.259 9.93158 135.259 9.82099 135.269 9.74357H137.381L137.446 9.69934C137.456 9.6551 137.456 9.61087 137.456 9.55557C137.446 8.73721 136.792 8.33909 136.191 8.33909C135.666 8.33909 134.669 8.79251 134.669 10.3076C134.669 10.8052 134.905 11.9885 136.106 11.9885C136.727 11.9885 137.156 11.5904 137.499 11.1149L137.392 11.0153ZM136.159 8.59345C136.577 8.59345 136.813 8.91416 136.813 9.30122C136.813 9.38969 136.792 9.50028 136.599 9.50028H135.291C135.387 8.93627 135.698 8.59345 136.159 8.59345ZM134.562 11.6789C134.347 11.6789 134.187 11.6789 134.187 11.4245V9.43392C134.187 8.82568 133.962 8.35015 133.318 8.35015C132.815 8.35015 132.45 8.61556 132.021 8.92521V8.42756C132.021 8.36121 132 8.35015 131.978 8.35015C131.614 8.51603 131.314 8.61556 130.992 8.72615V8.86992C131.346 9.01369 131.432 9.0911 131.432 9.37863V11.4245C131.432 11.6789 131.282 11.6789 131.067 11.6789H130.928V11.8779C131.196 11.8669 131.464 11.8669 131.743 11.8669C132.011 11.8669 132.279 11.8779 132.536 11.8779V11.6789H132.396C132.182 11.6789 132.021 11.6789 132.021 11.4245V9.13533C132.268 8.96945 132.654 8.75933 132.89 8.75933C133.318 8.75933 133.576 8.98051 133.576 9.42287V11.4245C133.576 11.6789 133.426 11.6789 133.211 11.6789H133.072V11.8779C133.34 11.8669 133.608 11.8669 133.887 11.8669C134.155 11.8669 134.423 11.8779 134.68 11.8779V11.6789H134.562ZM129.909 6.39272C129.717 6.39272 129.545 6.56967 129.545 6.76873C129.545 6.96779 129.717 7.15579 129.909 7.15579C130.113 7.15579 130.274 6.97885 130.274 6.76873C130.274 6.55861 130.102 6.39272 129.909 6.39272ZM130.585 11.6789C130.37 11.6789 130.21 11.6789 130.21 11.4245V8.44968C130.21 8.38333 130.199 8.33909 130.156 8.33909C130.113 8.33909 130.07 8.35015 130.017 8.38333C129.985 8.40545 129.566 8.54921 129.213 8.6598V8.78145C129.491 8.93627 129.609 8.98051 129.609 9.32333V11.4245C129.609 11.6789 129.459 11.6789 129.245 11.6789H129.106V11.8779C129.384 11.8669 129.652 11.8669 129.92 11.8669C130.188 11.8669 130.456 11.8779 130.713 11.8779V11.6789H130.585ZM125.836 6.48119C125.279 6.48119 124.85 6.49225 124.539 6.49225C124.249 6.49225 123.949 6.49225 123.649 6.48119V6.68026C123.992 6.69131 124.335 6.64708 124.335 7.34379V11.0928C124.314 11.6236 124.099 11.6346 123.649 11.6789V11.8779C123.992 11.8669 124.314 11.8669 124.657 11.8669C125.011 11.8669 125.364 11.8779 125.75 11.8779C128.409 11.8779 128.848 9.95369 128.848 9.17957C128.838 7.81932 127.776 6.48119 125.836 6.48119ZM125.857 11.6346C125.493 11.6346 125.075 11.5683 125.075 10.9711V6.75767C125.214 6.74661 125.354 6.72449 125.664 6.72449C127.112 6.72449 128.012 7.77509 128.012 9.21275C128.012 10.3739 127.476 11.6346 125.857 11.6346Z" fill="white"/>
</g>
<g clip-path="url(#clip1_2689_5415)">
<path d="M16.0262 6.10156H9.73438V17.278H16.0262V6.10156Z" fill="#7A7A7A"/>
<path d="M10.1336 11.6898C10.1336 9.41893 11.2122 7.4048 12.8701 6.10153C11.6716 5.1537 10.1136 4.58105 8.43581 4.58105C4.46096 4.58105 1.24512 7.76023 1.24512 11.6898C1.24512 15.6193 4.46096 18.7985 8.43581 18.7985C10.1136 18.7985 11.6516 18.2258 12.8701 17.278C11.2122 15.9747 10.1336 13.9606 10.1336 11.6898Z" fill="#404040"/>
<path d="M23.8364 16.0933V15.8564H23.9362V15.8169H23.6965V15.8564H23.7964V16.0933H23.8364ZM24.2958 16.0933V15.8169H24.2159L24.136 16.0144L24.0561 15.8169H23.9762V16.0933H24.0361V15.8761L24.116 16.0539H24.1759L24.2558 15.8761V16.0933H24.2958Z" fill="white"/>
<path d="M24.5151 11.6893C24.5151 15.6188 21.2993 18.798 17.3244 18.798C15.6466 18.798 14.1086 18.2254 12.8901 17.2775C14.568 15.9743 15.6266 13.9601 15.6266 11.6893C15.6266 9.41844 14.548 7.40431 12.8901 6.10104C14.1086 5.15321 15.6466 4.58057 17.3244 4.58057C21.2993 4.58057 24.5151 7.75974 24.5151 11.6893Z" fill="#B8B8B8"/>
<path d="M36.8993 14.0784V11.1165C36.8993 9.99092 36.1802 9.24056 35.0217 9.24056C34.4025 9.24056 33.7833 9.41828 33.3439 10.0897C33.0043 9.5565 32.485 9.24056 31.7659 9.24056C31.2466 9.24056 30.7473 9.39853 30.3678 9.95143V9.35904H29.3291V14.0784H30.3877V11.4522C30.3877 10.6228 30.8471 10.1884 31.5662 10.1884C32.2653 10.1884 32.6049 10.6426 32.6049 11.4324V14.0587H33.6635V11.4522C33.6635 10.6228 34.1429 10.1884 34.842 10.1884C35.561 10.1884 35.9006 10.6426 35.9006 11.4324V14.0587H36.8993V14.0784ZM52.4392 9.35904H50.7414V7.91755H49.6828V9.35904H48.704V10.3069H49.6828V12.4592C49.6828 13.565 50.1222 14.2167 51.3406 14.2167C51.8 14.2167 52.3193 14.0784 52.6389 13.8415L52.3393 12.9529C52.0197 13.1306 51.6802 13.2293 51.4205 13.2293C50.9012 13.2293 50.7214 12.9134 50.7214 12.4395V10.2871H52.4192V9.35904H52.4392ZM61.3077 9.24056C60.7085 9.24056 60.309 9.51701 60.0493 9.93168V9.35904H59.0107V14.0784H60.0493V11.4324C60.0493 10.6426 60.3889 10.2081 61.068 10.2081C61.2877 10.2081 61.5075 10.2476 61.7272 10.3266L62.0468 9.35904C61.827 9.28005 61.5274 9.24056 61.3077 9.24056ZM47.9051 9.73422C47.4057 9.39853 46.7066 9.24056 45.9476 9.24056C44.7292 9.24056 43.9502 9.81321 43.9502 10.761C43.9502 11.5311 44.5294 12.0051 45.608 12.163L46.1074 12.242C46.6866 12.321 46.9463 12.479 46.9463 12.7357C46.9463 13.1109 46.5668 13.3083 45.8477 13.3083C45.1287 13.3083 44.6093 13.0714 44.2498 12.8147L43.7504 13.6243C44.3297 14.0389 45.0488 14.2364 45.8277 14.2364C47.206 14.2364 48.0049 13.5848 48.0049 12.6962C48.0049 11.8668 47.3658 11.4324 46.3271 11.2744L45.8277 11.1955C45.3683 11.1362 45.0088 11.0375 45.0088 10.7215C45.0088 10.3661 45.3484 10.1686 45.9276 10.1686C46.5468 10.1686 47.1261 10.4056 47.4257 10.5833L47.9051 9.73422ZM75.769 9.24056C75.1698 9.24056 74.7703 9.51701 74.5106 9.93168V9.35904H73.472V14.0784H74.5106V11.4324C74.5106 10.6426 74.8502 10.2081 75.5293 10.2081C75.749 10.2081 75.9687 10.2476 76.1885 10.3266L76.508 9.35904C76.2883 9.28005 75.9887 9.24056 75.769 9.24056ZM62.3663 11.7089C62.3663 13.1504 63.385 14.1969 64.923 14.1969C65.6421 14.1969 66.1215 14.0389 66.6408 13.6243L66.1415 12.7949C65.742 13.0714 65.3425 13.2293 64.8831 13.2293C64.0442 13.2293 63.445 12.6172 63.445 11.7089C63.445 10.8005 64.0642 10.2081 64.8831 10.1884C65.3425 10.1884 65.742 10.3464 66.1415 10.6228L66.6408 9.79346C66.1215 9.37878 65.6421 9.22081 64.923 9.22081C63.385 9.24056 62.3663 10.2871 62.3663 11.7089ZM72.1137 11.7089V9.33929H71.0751V9.91194C70.7355 9.47752 70.2362 9.22081 69.557 9.22081C68.2188 9.22081 67.1601 10.2674 67.1601 11.7089C67.1601 13.1504 68.2188 14.1969 69.557 14.1969C70.2362 14.1969 70.7355 13.9205 71.0751 13.5058V14.0784H72.1137V11.7089ZM68.2387 11.7089C68.2387 10.8795 68.798 10.1884 69.6969 10.1884C70.5557 10.1884 71.135 10.84 71.135 11.7089C71.135 12.5777 70.5557 13.2293 69.6969 13.2293C68.778 13.2293 68.2387 12.5382 68.2387 11.7089ZM55.675 9.24056C54.2768 9.24056 53.2981 10.2476 53.2981 11.7286C53.2981 13.2293 54.3168 14.2167 55.7549 14.2167C56.474 14.2167 57.1331 14.0389 57.7124 13.5453L57.193 12.7752C56.7936 13.0911 56.2742 13.2688 55.7949 13.2688C55.1157 13.2688 54.5165 12.9529 54.3567 12.1038H57.9121C57.9321 11.9656 57.9321 11.8471 57.9321 11.7089C57.9521 10.2476 57.0133 9.24056 55.675 9.24056ZM55.655 10.1489C56.3342 10.1489 56.7536 10.5636 56.8735 11.2942H54.3967C54.4965 10.6228 54.916 10.1489 55.655 10.1489ZM81.7612 11.7089V7.46338H80.7226V9.93168C80.383 9.49726 79.8837 9.24056 79.2046 9.24056C77.8663 9.24056 76.8077 10.2871 76.8077 11.7286C76.8077 13.1701 77.8663 14.2167 79.2046 14.2167C79.8837 14.2167 80.383 13.9402 80.7226 13.5255V14.0982H81.7612V11.7089ZM82.9797 13.644C83.0196 13.644 83.0596 13.644 83.0995 13.6638C83.1395 13.6835 83.1794 13.7033 83.1994 13.723C83.2194 13.7427 83.2593 13.7822 83.2593 13.8217C83.2793 13.8612 83.2793 13.9007 83.2793 13.9402C83.2793 13.9797 83.2793 14.0192 83.2593 14.0587C83.2393 14.0982 83.2194 14.1179 83.1994 14.1574C83.1794 14.1772 83.1395 14.1969 83.0995 14.2167C83.0596 14.2364 83.0196 14.2364 82.9797 14.2364C82.9397 14.2364 82.8998 14.2364 82.8598 14.2167C82.8199 14.1969 82.7799 14.1772 82.76 14.1574C82.74 14.1377 82.72 14.0982 82.7 14.0587C82.6801 14.0192 82.68 13.9797 82.68 13.9402C82.68 13.9007 82.6801 13.8612 82.7 13.8217C82.72 13.7822 82.74 13.7625 82.76 13.723C82.7799 13.7033 82.8199 13.6835 82.8598 13.6638C82.8998 13.644 82.9397 13.644 82.9797 13.644ZM82.9797 14.1772C83.0196 14.1772 83.0396 14.1772 83.0795 14.1574C83.0995 14.1377 83.1395 14.1377 83.1594 14.0982C83.1794 14.0784 83.1994 14.0587 83.2194 14.0192C83.2393 13.9995 83.2393 13.96 83.2393 13.9205C83.2393 13.881 83.2393 13.8612 83.2194 13.8217C83.1994 13.802 83.1994 13.7625 83.1594 13.7427C83.1395 13.723 83.1195 13.7033 83.0795 13.6835C83.0596 13.6638 83.0196 13.6638 82.9797 13.6638C82.9397 13.6638 82.9197 13.6638 82.8798 13.6835C82.8598 13.7033 82.8199 13.7033 82.7999 13.7427C82.7799 13.7625 82.76 13.7822 82.74 13.8217C82.72 13.8415 82.72 13.881 82.72 13.9205C82.72 13.96 82.72 13.9797 82.74 14.0192C82.76 14.0389 82.76 14.0784 82.7999 14.0982C82.8199 14.1179 82.8398 14.1377 82.8798 14.1574C82.9197 14.1772 82.9397 14.1772 82.9797 14.1772ZM82.9996 13.802C83.0396 13.802 83.0596 13.802 83.0795 13.8217C83.0995 13.8415 83.0995 13.8612 83.0995 13.881C83.0995 13.9007 83.0995 13.9205 83.0795 13.9402C83.0596 13.96 83.0396 13.96 83.0196 13.96L83.1195 14.0587H83.0396L82.9597 13.96H82.9197V14.0587H82.8598V13.7822H82.9996V13.802ZM82.9197 13.8612V13.9402H82.9797C82.9996 13.9402 82.9996 13.9402 83.0196 13.9402L83.0396 13.9205C83.0396 13.9007 83.0396 13.9007 83.0196 13.9007C83.0196 13.9007 82.9996 13.9007 82.9797 13.9007H82.9197V13.8612ZM77.8863 11.7089C77.8863 10.8795 78.4455 10.1884 79.3444 10.1884C80.2033 10.1884 80.7825 10.84 80.7825 11.7089C80.7825 12.5777 80.2033 13.2293 79.3444 13.2293C78.4455 13.2293 77.8863 12.5382 77.8863 11.7089ZM42.7517 11.7089V9.33929H41.7131V9.91194C41.3735 9.47752 40.8742 9.22081 40.195 9.22081C38.8568 9.22081 37.7981 10.2674 37.7981 11.7089C37.7981 13.1504 38.8568 14.1969 40.195 14.1969C40.8742 14.1969 41.3735 13.9205 41.7131 13.5058V14.0784H42.7517V11.7089ZM38.8767 11.7089C38.8767 10.8795 39.436 10.1884 40.3349 10.1884C41.1937 10.1884 41.773 10.84 41.773 11.7089C41.773 12.5777 41.1937 13.2293 40.3349 13.2293C39.436 13.2293 38.8767 12.5382 38.8767 11.7089Z" fill="white"/>
</g>
<path fill-rule="evenodd" clip-rule="evenodd" d="M181.891 6.53271L181.892 6.53578H180V6.85627V6.85729C181.476 6.90426 181.917 7.59892 182.08 8.40759L182.951 17.0398H185.815L191.935 6.53271H189.071L185.393 12.8479L184.756 6.53271H181.891Z" fill="white"/>
<path fill-rule="evenodd" clip-rule="evenodd" d="M193.46 6.52686H196.24L192.831 17.0441H190.051L193.46 6.52686Z" fill="white"/>
<path fill-rule="evenodd" clip-rule="evenodd" d="M208.957 6.9292L203.58 17.2369H206.596L207.381 15.6631H210.882L211.002 17.2369H213.782L212.996 6.9292C211.649 6.9292 210.303 6.9292 208.957 6.9292ZM210.417 9.57437L210.75 13.9324H208.244L210.417 9.57437Z" fill="white"/>
<path d="M196.923 9.20186C197.34 7.53415 198.71 6.39551 201.041 6.39551C203.225 6.39551 204.844 7.75934 204.844 7.75934L203.192 9.49037C203.192 9.49037 201.97 8.54617 201.251 8.54617C200.299 8.54617 199.87 8.89353 199.782 9.46414C199.607 10.6019 203.661 11.2982 203.533 13.9491C203.447 15.7193 201.615 17.4373 199.52 17.4373C196.378 17.4373 194.825 16.1784 194.825 16.1784L196.241 14.1589C196.241 14.1589 197.661 15.2961 198.995 15.2342C199.895 15.1925 200.589 14.8475 200.543 14.2376C200.437 12.855 196.168 12.2204 196.923 9.20186Z" fill="white"/>
<path d="M213.932 6.73584C213.835 6.73584 213.74 6.76075 213.648 6.81057C213.555 6.86039 213.483 6.93208 213.431 7.02483C213.38 7.11757 213.354 7.21419 213.354 7.31486C213.354 7.4145 213.379 7.5103 213.43 7.60228C213.482 7.69426 213.553 7.76569 213.645 7.81654C213.736 7.86738 213.832 7.89283 213.932 7.89283C214.032 7.89283 214.128 7.86738 214.22 7.81654C214.311 7.76569 214.383 7.69426 214.433 7.60228C214.484 7.5103 214.51 7.4145 214.51 7.31486C214.51 7.21419 214.484 7.11757 214.432 7.02483C214.381 6.93208 214.309 6.86039 214.216 6.81057C214.124 6.76075 214.029 6.73584 213.932 6.73584ZM213.932 6.832C214.013 6.832 214.091 6.85254 214.168 6.89418C214.246 6.93583 214.306 6.99549 214.349 7.0729C214.392 7.15032 214.414 7.23106 214.414 7.31486C214.414 7.39815 214.393 7.47781 214.35 7.5542C214.308 7.63059 214.248 7.69026 214.172 7.73292C214.095 7.77559 214.015 7.79668 213.932 7.79668C213.849 7.79668 213.769 7.77559 213.692 7.73292C213.616 7.69026 213.556 7.63059 213.513 7.5542C213.471 7.47781 213.45 7.39815 213.45 7.31486C213.45 7.23106 213.471 7.15032 213.514 7.0729C213.558 6.99549 213.618 6.93583 213.695 6.89418C213.772 6.85254 213.851 6.832 213.932 6.832Z" fill="white"/>
<path d="M213.693 6.99658V7.67847H213.794V7.38877H213.853C213.889 7.38877 213.915 7.39657 213.934 7.41224C213.961 7.43352 213.996 7.48687 214.04 7.57141L214.095 7.67847H214.218L214.142 7.54507C214.105 7.48181 214.075 7.43682 214.049 7.40995C214.036 7.39596 214.018 7.38396 213.996 7.37388C214.05 7.3694 214.093 7.34843 214.126 7.31148C214.159 7.27453 214.175 7.23134 214.175 7.18151C214.175 7.14624 214.165 7.11324 214.145 7.08189C214.126 7.05054 214.1 7.02807 214.067 7.01548C214.034 7.00288 213.981 6.99658 213.908 6.99658H213.693ZM213.794 7.08933H213.908C213.958 7.08933 213.992 7.09295 214.01 7.10078C214.028 7.10862 214.042 7.1209 214.053 7.13685C214.063 7.15281 214.068 7.17052 214.068 7.19067C214.068 7.22202 214.057 7.24721 214.036 7.26625C214.015 7.28528 213.975 7.29487 213.916 7.29487H213.794V7.08933Z" fill="white"/>
<defs>
<clipPath id="clip0_2689_5415">
<rect width="54.7889" height="14.7194" fill="white" transform="translate(104 4.16992)"/>
</clipPath>
<clipPath id="clip1_2689_5415">
<rect width="82.3774" height="21.7211" fill="white" transform="translate(0 0.830078)"/>
</clipPath>
</defs>
</svg>
