<svg width="112" height="23" viewBox="0 0 112 23" fill="none" xmlns="http://www.w3.org/2000/svg">
<g clip-path="url(#clip0_2689_5393)">
<path d="M22.8562 6.35645H19.4736C19.3616 6.35637 19.2533 6.3963 19.1681 6.46903C19.083 6.54176 19.0266 6.6425 19.0091 6.75312L17.6411 15.427C17.6348 15.4672 17.6373 15.5084 17.6484 15.5476C17.6596 15.5867 17.6791 15.6231 17.7056 15.654C17.7321 15.6849 17.765 15.7097 17.802 15.7267C17.839 15.7437 17.8793 15.7525 17.92 15.7524H19.5349C19.647 15.7525 19.7554 15.7125 19.8405 15.6397C19.9257 15.5668 19.982 15.466 19.9993 15.3553L20.3683 13.0158C20.3856 12.9052 20.4419 12.8044 20.527 12.7316C20.612 12.6587 20.7203 12.6187 20.8323 12.6186H21.9031C24.1313 12.6186 25.4172 11.5404 25.7531 9.4037C25.9044 8.4689 25.7595 7.73441 25.3218 7.22002C24.841 6.65519 23.9883 6.35645 22.8562 6.35645ZM23.2464 9.52438C23.0614 10.7381 22.1341 10.7381 21.2373 10.7381H20.7269L21.085 8.47137C21.0955 8.40505 21.1293 8.34466 21.1803 8.30104C21.2314 8.25743 21.2963 8.23347 21.3635 8.23347H21.5974C22.2082 8.23347 22.7845 8.23347 23.0822 8.58167C23.2598 8.7894 23.3142 9.09804 23.2464 9.52438ZM32.9674 9.48531H31.3475C31.2804 9.48531 31.2155 9.50927 31.1644 9.55289C31.1134 9.5965 31.0796 9.6569 31.0691 9.72321L30.9974 10.1763L30.8841 10.0121C30.5334 9.50312 29.7515 9.33297 28.971 9.33297C27.181 9.33297 25.6522 10.6887 25.3544 12.5904C25.1996 13.5391 25.4197 14.4462 25.9578 15.0788C26.4515 15.6604 27.1577 15.9028 27.9981 15.9028C29.4403 15.9028 30.2401 14.9754 30.2401 14.9754L30.1679 15.4255C30.1615 15.4657 30.1638 15.5069 30.1748 15.5461C30.1858 15.5854 30.2052 15.6218 30.2316 15.6528C30.2581 15.6838 30.2909 15.7088 30.3279 15.7259C30.3649 15.743 30.4051 15.7519 30.4459 15.7519H31.905C32.017 15.752 32.1254 15.712 32.2106 15.6392C32.2957 15.5663 32.3521 15.4655 32.3694 15.3548L33.2448 9.81076C33.2513 9.77061 33.2489 9.72954 33.238 9.69038C33.227 9.65123 33.2076 9.61492 33.1812 9.58398C33.1549 9.55303 33.1221 9.52818 33.0851 9.51115C33.0482 9.49411 33.008 9.4853 32.9674 9.48531ZM30.7095 12.6379C30.5532 13.5633 29.8187 14.1845 28.8819 14.1845C28.4116 14.1845 28.0357 14.0337 27.7943 13.7478C27.5549 13.4639 27.4639 13.0598 27.5401 12.6097C27.686 11.6922 28.4328 11.0507 29.3553 11.0507C29.8153 11.0507 30.1892 11.2036 30.4355 11.4919C30.6823 11.7832 30.7802 12.1898 30.7095 12.6379ZM41.5942 9.48531H39.9665C39.8897 9.48543 39.8142 9.50428 39.7463 9.54022C39.6785 9.57616 39.6205 9.62811 39.5772 9.69156L37.3322 12.9985L36.3806 9.82065C36.3514 9.72373 36.2918 9.63878 36.2105 9.57839C36.1293 9.518 36.0308 9.48536 35.9295 9.48531H34.33C34.2851 9.48519 34.2408 9.4958 34.2008 9.51625C34.1609 9.5367 34.1264 9.5664 34.1002 9.60288C34.074 9.63936 34.0569 9.68157 34.0504 9.72598C34.0438 9.7704 34.0479 9.81574 34.0624 9.85824L35.8554 15.1198L34.1697 17.4994C34.1398 17.5416 34.122 17.5912 34.1184 17.6428C34.1148 17.6944 34.1254 17.746 34.1492 17.792C34.1729 17.838 34.2088 17.8765 34.253 17.9034C34.2972 17.9303 34.348 17.9445 34.3997 17.9445H36.0255C36.1014 17.9446 36.1762 17.9263 36.2435 17.8912C36.3108 17.856 36.3685 17.8051 36.4118 17.7427L41.8257 9.92798C41.8551 9.8857 41.8723 9.8362 41.8755 9.78483C41.8787 9.73347 41.8678 9.6822 41.8439 9.6366C41.8201 9.59099 41.7842 9.55278 41.7402 9.52611C41.6962 9.49945 41.6457 9.48533 41.5942 9.48531Z" fill="white"/>
<path d="M46.9837 6.35694H43.6006C43.4887 6.35699 43.3805 6.39697 43.2955 6.46968C43.2104 6.5424 43.1541 6.64308 43.1367 6.75361L41.7686 15.4275C41.7622 15.4677 41.7647 15.5087 41.7757 15.5479C41.7867 15.5871 41.8061 15.6233 41.8326 15.6543C41.859 15.6852 41.8918 15.7101 41.9287 15.7271C41.9657 15.7441 42.0059 15.7529 42.0466 15.7529H43.7826C43.8609 15.7528 43.9367 15.7248 43.9961 15.6738C44.0556 15.6228 44.095 15.5523 44.1071 15.475L44.4954 13.0163C44.5127 12.9057 44.5689 12.8049 44.654 12.7321C44.7391 12.6592 44.8473 12.6192 44.9593 12.6191H46.0296C48.2583 12.6191 49.5438 11.5409 49.8801 9.40419C50.0319 8.46939 49.886 7.73491 49.4483 7.22052C48.9681 6.65568 48.1159 6.35694 46.9837 6.35694ZM47.3739 9.52488C47.1895 10.7386 46.2621 10.7386 45.3649 10.7386H44.8549L45.2135 8.47187C45.2238 8.40555 45.2575 8.3451 45.3085 8.30146C45.3595 8.25782 45.4244 8.23388 45.4915 8.23396H45.7254C46.3358 8.23396 46.9125 8.23396 47.2102 8.58216C47.3878 8.7899 47.4417 9.09853 47.3739 9.52488ZM57.0944 9.4858H55.4756C55.4084 9.48562 55.3434 9.50953 55.2924 9.55318C55.2414 9.59684 55.2078 9.65735 55.1976 9.72371L55.1259 10.1768L55.0121 10.0126C54.6614 9.50361 53.88 9.33347 53.0995 9.33347C51.3095 9.33347 49.7812 10.6892 49.4834 12.5909C49.3291 13.5396 49.5482 14.4467 50.0864 15.0793C50.581 15.6609 51.2863 15.9033 52.1266 15.9033C53.5689 15.9033 54.3686 14.9759 54.3686 14.9759L54.2964 15.426C54.29 15.4663 54.2924 15.5076 54.3034 15.5469C54.3145 15.5862 54.334 15.6226 54.3605 15.6537C54.387 15.6847 54.42 15.7096 54.4571 15.7267C54.4942 15.7437 54.5345 15.7525 54.5754 15.7524H56.034C56.1459 15.7524 56.2542 15.7123 56.3393 15.6395C56.4243 15.5667 56.4806 15.4659 56.4979 15.3553L57.3739 9.81125C57.3801 9.77098 57.3775 9.72983 57.3663 9.69064C57.3551 9.65146 57.3355 9.61516 57.309 9.58424C57.2824 9.55332 57.2495 9.52851 57.2125 9.51152C57.1754 9.49453 57.1352 9.48576 57.0944 9.4858ZM54.8365 12.6384C54.6812 13.5638 53.9458 14.185 53.009 14.185C52.5396 14.185 52.1627 14.0342 51.9213 13.7483C51.6819 13.4644 51.5919 13.0603 51.6671 12.6102C51.814 11.6927 52.5599 11.0512 53.4823 11.0512C53.9423 11.0512 54.3162 11.2041 54.5625 11.4924C54.8103 11.7837 54.9083 12.1903 54.8365 12.6384ZM59.0041 6.59484L57.6157 15.4275C57.6093 15.4677 57.6118 15.5087 57.6228 15.5479C57.6339 15.5871 57.6533 15.6233 57.6797 15.6543C57.7061 15.6852 57.7389 15.7101 57.7759 15.7271C57.8128 15.7441 57.853 15.7529 57.8937 15.7529H59.2895C59.5214 15.7529 59.7183 15.5848 59.7539 15.3558L61.123 6.68239C61.1293 6.64218 61.1269 6.60108 61.1158 6.5619C61.1048 6.52273 61.0854 6.4864 61.059 6.45543C61.0326 6.42446 60.9998 6.39958 60.9628 6.38249C60.9259 6.3654 60.8857 6.35652 60.845 6.35645H59.282C59.2149 6.35668 59.1501 6.3808 59.0992 6.42449C59.0482 6.46817 59.0145 6.52856 59.0041 6.59484Z" fill="#B1B1CF"/>
<path d="M3.59368 17.4376L3.85235 15.7946L3.27614 15.7812H0.524658L2.4368 3.65697C2.44249 3.61993 2.46131 3.58616 2.48981 3.56183C2.51832 3.5375 2.55462 3.52422 2.5921 3.52442H7.23149C8.77168 3.52442 9.83459 3.84492 10.3895 4.47752C10.6497 4.77428 10.8154 5.0844 10.8955 5.42567C10.9796 5.78377 10.9811 6.2116 10.899 6.73341L10.893 6.77149V7.10584L11.1532 7.25324C11.3518 7.35386 11.5303 7.48997 11.68 7.65485C11.9025 7.90859 12.0465 8.23107 12.1073 8.6134C12.1701 9.00661 12.1493 9.4745 12.0465 10.0042C11.9278 10.6136 11.7358 11.1443 11.4767 11.5785C11.248 11.9676 10.9405 12.3045 10.574 12.5678C10.2298 12.8121 9.82074 12.9976 9.35828 13.1163C8.91017 13.233 8.39925 13.2919 7.83886 13.2919H7.4778C7.21962 13.2919 6.96885 13.3848 6.772 13.5515C6.57543 13.72 6.44502 13.9527 6.40402 14.2084L6.37681 14.3562L5.9198 17.2521L5.89902 17.3585C5.89358 17.3921 5.88419 17.4089 5.87034 17.4203C5.85692 17.4313 5.84018 17.4374 5.82286 17.4376H3.59368Z" fill="white"/>
<path d="M11.3992 6.81055C11.3853 6.89908 11.3695 6.98959 11.3517 7.08258C10.7398 10.2238 8.64668 11.309 5.97335 11.309H4.6122C4.28526 11.309 4.00977 11.5464 3.95882 11.8689L3.26193 16.2886L3.06458 17.5415C3.05672 17.5912 3.05972 17.642 3.07338 17.6904C3.08703 17.7388 3.11102 17.7837 3.14369 17.822C3.17636 17.8602 3.21694 17.891 3.26262 17.912C3.30831 17.9331 3.35802 17.9441 3.40833 17.9441H5.82249C6.10837 17.9441 6.35122 17.7363 6.39623 17.4544L6.41997 17.3318L6.87451 14.4472L6.9037 14.289C6.94821 14.006 7.19155 13.7983 7.47744 13.7983H7.8385C10.1775 13.7983 12.0085 12.8487 12.5437 10.1007C12.7672 8.95268 12.6515 7.99413 12.0599 7.31999C11.8725 7.11145 11.6485 6.93881 11.3992 6.81055Z" fill="#B1B1CF"/>
<path d="M10.76 6.55523C10.5647 6.49872 10.3659 6.45461 10.165 6.42317C9.76801 6.36216 9.36677 6.33288 8.96511 6.33563H5.32878C5.19039 6.33552 5.05653 6.38492 4.9514 6.47491C4.84626 6.5649 4.77679 6.68953 4.75553 6.82627L3.98197 11.7258L3.95972 11.8688C3.98382 11.7128 4.06294 11.5706 4.18278 11.4679C4.30263 11.3652 4.45527 11.3088 4.61309 11.3089H5.97424C8.64757 11.3089 10.7407 10.2232 11.3526 7.08248C11.3709 6.98949 11.3862 6.89898 11.4 6.81045C11.2386 6.72578 11.0703 6.65481 10.897 6.59826C10.8516 6.58318 10.8059 6.56884 10.76 6.55523Z" fill="#66668F"/>
<path d="M4.75508 6.82651C4.77615 6.68973 4.84559 6.56504 4.95078 6.4751C5.05596 6.38515 5.18993 6.33593 5.32832 6.33636H8.96465C9.39545 6.33636 9.79757 6.36455 10.1646 6.4239C10.4129 6.46293 10.6578 6.52131 10.8971 6.5985C11.0776 6.65834 11.2453 6.72907 11.4001 6.81068C11.5821 5.64985 11.3986 4.85947 10.7709 4.14378C10.079 3.35587 8.83012 3.01855 7.23205 3.01855H2.59267C2.26623 3.01855 1.98777 3.25596 1.93732 3.57894L0.00490138 15.8278C-0.0040995 15.8847 -0.000674969 15.9428 0.0149394 15.9982C0.0305538 16.0537 0.0579874 16.105 0.0953532 16.1488C0.132719 16.1926 0.17913 16.2278 0.231394 16.252C0.283658 16.2762 0.340535 16.2887 0.398111 16.2888H3.26236L3.98152 11.7261L4.75508 6.82651Z" fill="white"/>
</g>
<g clip-path="url(#clip1_2689_5393)">
<path d="M97.2502 13.5205H94.6682L93.6374 14.643L92.6373 13.5205H89.3918V16.9393H92.5964L93.6272 15.8066L94.6274 16.9393H96.1991V15.7963H97.2094C97.9136 15.7963 98.6178 15.6006 98.6178 14.6533C98.6178 13.6956 97.8932 13.5205 97.2502 13.5205ZM92.1882 16.2185H90.1981V15.5389H91.9739V14.8386H90.1981V14.2208H92.229L93.1169 15.2196L92.1882 16.2185ZM95.3928 16.6201L94.1477 15.2299L95.3928 13.8809V16.6201ZM97.2502 15.0961H96.2093V14.231H97.2604C97.5564 14.231 97.7503 14.3546 97.7503 14.6533C97.7503 14.9416 97.5564 15.0961 97.2502 15.0961Z" fill="white"/>
<path d="M101.68 15.3437C101.895 15.2614 102.252 14.9833 102.252 14.4375C102.252 14.0462 102.089 13.83 101.834 13.6755C101.568 13.5313 101.272 13.5107 100.864 13.5107H98.9963V16.9296H99.8128V15.6836H100.68C100.976 15.6836 101.16 15.7145 101.272 15.838C101.425 15.9925 101.405 16.3014 101.405 16.5074V16.9296H102.221V16.2499C102.221 15.9513 102.201 15.7968 102.089 15.6218C102.007 15.5291 101.864 15.4158 101.68 15.3437ZM101.191 14.9215C101.078 14.9833 100.946 14.9936 100.793 14.9936H99.8128V14.2316H100.813C100.956 14.2316 101.099 14.2316 101.201 14.2934C101.303 14.3449 101.364 14.4581 101.364 14.6023C101.364 14.7465 101.303 14.8597 101.191 14.9215Z" fill="white"/>
<path d="M103.507 14.2208V14.8386H105.354V15.5389H103.507V16.2185H105.405V16.929H102.701V13.5205H105.405V14.2208H103.507Z" fill="white"/>
<path d="M107.783 16.1161C107.834 16.0646 107.875 15.9822 107.875 15.8895C107.875 15.7865 107.834 15.7144 107.773 15.663C107.712 15.6115 107.62 15.5909 107.487 15.5909C106.732 15.5703 105.783 15.6115 105.783 14.5302C105.783 14.0359 106.089 13.5107 106.936 13.5107H108.559V14.2419H107.079C106.936 14.2419 106.834 14.2419 106.753 14.3037C106.661 14.3552 106.63 14.4375 106.63 14.5508C106.63 14.6744 106.701 14.7671 106.804 14.8083C106.885 14.8391 106.977 14.8494 107.12 14.8494L107.559 14.8597C107.998 14.87 108.304 14.9421 108.477 15.1378C108.63 15.3025 108.722 15.5085 108.722 15.8586C108.722 16.5898 108.263 16.9399 107.446 16.9399H105.875V16.2087H107.446C107.61 16.1984 107.722 16.1778 107.783 16.1161Z" fill="white"/>
<path d="M90.3311 7.64014L89.3514 9.95712L88.3002 7.64014H86.9734V10.8736L85.6059 7.64014H84.4016L82.9524 11.059H83.8301L84.1465 10.2969H85.8304L86.1366 11.059H87.7797V8.38157L88.9534 11.059H89.6678L90.8414 8.38157V11.059H91.6681V7.64014H90.3311ZM84.4322 9.5761L84.9833 8.21681L85.5344 9.5761H84.4322Z" fill="white"/>
<path d="M93.0868 8.35068V8.96854H94.934V9.66878H93.0868V10.3484H94.9748V11.059H92.2805V7.64014H94.9748V8.35068H93.0868Z" fill="white"/>
<path d="M98.2203 9.47357C98.4346 9.39119 98.7918 9.10285 98.7918 8.56737C98.7918 8.18636 98.6387 7.95981 98.3836 7.81564C98.1182 7.66118 97.8223 7.65088 97.4038 7.65088H95.5464V11.0697H96.3526V9.8134H97.2201C97.5059 9.8134 97.6896 9.83399 97.8121 9.95756C97.9549 10.1223 97.9345 10.421 97.9345 10.6269V11.0594H98.751V10.3901C98.751 10.0811 98.7306 9.93697 98.6183 9.76191C98.5469 9.65893 98.3938 9.53536 98.2203 9.47357ZM97.7304 9.04107C97.6181 9.11315 97.4855 9.11315 97.3324 9.11315H96.3526V8.35112H97.3528C97.4957 8.35112 97.6386 8.36142 97.7406 8.41291C97.8427 8.4644 97.9141 8.56737 97.9141 8.71154C97.8937 8.86601 97.8325 8.97928 97.7304 9.04107Z" fill="white"/>
<path d="M100.088 7.64014H99.261V11.059H100.088V7.64014Z" fill="white"/>
<path d="M108.825 7.64014V10.0189L107.406 7.64014H106.171V10.8736L104.803 7.64014H103.589L102.446 10.3278H102.079C101.864 10.3278 101.64 10.2866 101.517 10.1528C101.364 9.97771 101.293 9.72027 101.293 9.34955C101.293 8.98913 101.385 8.72139 101.527 8.57723C101.691 8.42276 101.854 8.37127 102.15 8.37127H102.915V7.64014H102.13C101.568 7.64014 101.16 7.76371 100.905 8.04175C100.558 8.40217 100.466 8.86556 100.466 9.38045C100.466 9.99831 100.619 10.3896 100.895 10.6883C101.18 10.9766 101.67 11.0693 102.068 11.0693H103.017L103.324 10.3072H105.008L105.324 11.0693H106.967V8.49485L108.498 11.059H109.641V7.64014H108.825ZM103.62 9.5761L104.181 8.21681L104.742 9.5761H103.62Z" fill="white"/>
<path d="M109.212 13.1183V12.8403H106.997C106.64 12.8403 106.232 12.933 106.028 13.1183V12.8403H102.078V13.1183C101.762 12.8918 101.231 12.8403 100.986 12.8403H98.3836V13.1183C98.1387 12.8712 97.5774 12.8403 97.2406 12.8403H94.3218L93.6584 13.5714L93.0358 12.8403H88.6678V17.6081H92.944L93.6278 16.8667L94.2707 17.6081H96.9038V16.4857H97.1589C97.5059 16.4857 97.9244 16.4754 98.2816 16.3209V17.6081H100.455V16.3621H100.557C100.69 16.3621 100.711 16.3621 100.711 16.5063V17.6081H107.334C107.752 17.6081 108.191 17.5052 108.436 17.2992V17.6081H110.528C110.967 17.6081 111.396 17.5463 111.712 17.3919V22.5098H82.9424V11.7281H84.3202L84.6263 10.9661H85.3203L85.6265 11.7281H88.3412V11.1515L88.5861 11.7384H89.9945L90.2395 11.1515V11.7384H96.9956V10.4924H97.1283C97.2202 10.4924 97.2508 10.5027 97.2508 10.6572V11.7384H100.741V11.4501C101.027 11.6046 101.466 11.7384 102.037 11.7384H103.507L103.823 10.9764H104.517L104.823 11.7384H107.661V11.0176L108.089 11.7384H110.355V6.96031H108.11V7.52669L107.793 6.96031H105.487V7.52669L105.201 6.96031H102.088C101.568 6.96031 101.109 7.0324 100.741 7.23835V6.96031H98.5877V7.23835C98.353 7.0324 98.0366 6.96031 97.6794 6.96031H89.8414L89.3107 8.18574L88.7698 6.96031H86.3001V7.52669L86.0245 6.96031H83.9221L82.9424 9.22581V0.791992H111.712V12.8403H110.212C109.773 12.8403 109.436 12.9433 109.212 13.1183Z" fill="white"/>
<path d="M111.886 15.8586C111.886 16.1161 111.825 16.3323 111.713 16.4971C111.519 16.7854 111.131 16.9296 110.61 16.9296H109.049V16.1984H110.6C110.753 16.1984 110.866 16.1778 110.927 16.1161C110.978 16.0646 111.019 15.9822 111.019 15.8895C111.019 15.7865 110.978 15.7144 110.917 15.663C110.855 15.6115 110.774 15.5909 110.631 15.5909C109.876 15.5703 108.927 15.6115 108.927 14.5302C108.927 14.0359 109.233 13.5107 110.09 13.5107H111.702V14.2316H110.233C110.09 14.2316 109.988 14.2419 109.906 14.2934C109.825 14.3449 109.784 14.4272 109.784 14.5405C109.784 14.6641 109.855 14.7568 109.957 14.798C110.039 14.8288 110.131 14.8391 110.263 14.8391L110.702 14.8494C111.141 14.8597 111.437 14.9318 111.621 15.1275C111.651 15.1481 111.672 15.179 111.692 15.2099C111.835 15.3746 111.886 15.56 111.886 15.8586Z" fill="white"/>
</g>
<defs>
<clipPath id="clip0_2689_5393">
<rect width="61.3309" height="16.3219" fill="white" transform="translate(0 3.01855)"/>
</clipPath>
<clipPath id="clip1_2689_5393">
<rect width="28.9434" height="21.7076" fill="white" transform="translate(82.9424 0.791992)"/>
</clipPath>
</defs>
</svg>
