<svg width="25" height="25" viewBox="0 0 25 25" fill="none" xmlns="http://www.w3.org/2000/svg">
<rect width="24.8462" height="24.8462" fill="url(#paint0_linear_2689_5376)"/>
<path d="M16.4994 4.38766L14.3906 4.38428C12.0215 4.38428 10.4904 5.95507 10.4904 8.3863V10.2315H8.37016C8.18694 10.2315 8.03857 10.38 8.03857 10.5632V13.2367C8.03857 13.4199 8.18711 13.5683 8.37016 13.5683H10.4904V20.3144C10.4904 20.4976 10.6388 20.6459 10.822 20.6459H13.5884C13.7716 20.6459 13.92 20.4974 13.92 20.3144V13.5683H16.3991C16.5823 13.5683 16.7306 13.4199 16.7306 13.2367L16.7317 10.5632C16.7317 10.4753 16.6966 10.391 16.6346 10.3288C16.5725 10.2665 16.4879 10.2315 16.3999 10.2315H13.92V8.6673C13.92 7.91548 14.0991 7.53382 15.0785 7.53382L16.499 7.53331C16.6821 7.53331 16.8305 7.38478 16.8305 7.20173V4.71925C16.8305 4.53637 16.6823 4.388 16.4994 4.38766Z" fill="white"/>
<defs>
<linearGradient id="paint0_linear_2689_5376" x1="-5.23077" y1="26.8077" x2="28.4423" y2="4.35084e-08" gradientUnits="userSpaceOnUse">
<stop stop-color="#005AFF"/>
<stop offset="0.709872" stop-color="#F000FF"/>
</linearGradient>
</defs>
</svg>
