<svg width="71" height="71" viewBox="0 0 71 71" fill="none" xmlns="http://www.w3.org/2000/svg">
<g clip-path="url(#clip0_2622_29840)">
<path d="M35.1217 70.2433C54.5188 70.2433 70.2433 54.5188 70.2433 35.1217C70.2433 15.7245 54.5188 0 35.1217 0C15.7245 0 0 15.7245 0 35.1217C0 54.5188 15.7245 70.2433 35.1217 70.2433Z" fill="white"/>
<path d="M53.6955 35.1218L55.3629 33.2485L53.3767 31.7073L54.6787 29.5616L52.44 28.4123L53.3235 26.0607L50.9121 25.3499L51.3439 22.8721L48.8461 22.613L48.8195 20.1019L46.3151 20.3078L45.8235 17.8433L43.3988 18.5009L42.4688 16.1692L40.2102 17.2587L38.8616 15.1396L36.8422 16.6343L35.1216 14.8008L33.4077 16.6343L31.3882 15.1396L30.0397 17.2587L27.7811 16.1692L26.8444 18.5009L24.4197 17.8433L23.9348 20.3078L21.4303 20.1019L21.4038 22.613L18.906 22.8721L19.3378 25.3499L16.9264 26.0607L17.8033 28.4123L15.5712 29.5616L16.8666 31.7073L14.887 33.2485L16.5544 35.1218L14.887 37.0018L16.8666 38.5363L15.5712 40.6887L17.8033 41.8313L16.9264 44.1895L19.3378 44.9003L18.906 47.3782L21.4038 47.6373L21.4303 50.1483L23.9348 49.9424L24.4197 52.4069L26.8444 51.7493L27.7811 54.081L30.0397 52.9849L31.3882 55.1107L33.4077 53.616L35.1216 55.4495L36.8422 53.616L38.8616 55.1107L40.2102 52.9849L42.4688 54.081L43.4055 51.7493L45.8302 52.4069L46.3151 49.9424L48.8195 50.1417L48.8461 47.6306L51.3439 47.3715L50.9121 44.9003L53.3235 44.1895L52.4466 41.8313L54.6787 40.6887L53.3767 38.5363L55.3629 37.0018L53.6955 35.1218Z" fill="url(#paint0_linear_2622_29840)"/>
<path d="M53.6955 35.1218L55.3629 33.2485L53.3767 31.7073L54.6787 29.5616L52.44 28.4123L53.3235 26.0607L50.9121 25.3499L51.3439 22.8721L48.8461 22.613L48.8195 20.1019L46.3151 20.3078L45.8235 17.8433L43.3988 18.5009L42.4688 16.1692L40.2102 17.2587L38.8616 15.1396L36.8422 16.6343L35.1216 14.8008L33.4077 16.6343L31.3882 15.1396L30.0397 17.2587L27.7811 16.1692L26.8444 18.5009L24.4197 17.8433L23.9348 20.3078L21.4303 20.1019L21.4038 22.613L18.906 22.8721L19.3378 25.3499L16.9264 26.0607L17.8033 28.4123L15.5712 29.5616L16.8666 31.7073L14.887 33.2485L16.5544 35.1218L14.887 37.0018L16.8666 38.5363L15.5712 40.6887L17.8033 41.8313L16.9264 44.1895L19.3378 44.9003L18.906 47.3782L21.4038 47.6373L21.4303 50.1483L23.9348 49.9424L24.4197 52.4069L26.8444 51.7493L27.7811 54.081L30.0397 52.9849L31.3882 55.1107L33.4077 53.616L35.1216 55.4495L36.8422 53.616L38.8616 55.1107L40.2102 52.9849L42.4688 54.081L43.4055 51.7493L45.8302 52.4069L46.3151 49.9424L48.8195 50.1417L48.8461 47.6306L51.3439 47.3715L50.9121 44.9003L53.3235 44.1895L52.4466 41.8313L54.6787 40.6887L53.3767 38.5363L55.3629 37.0018L53.6955 35.1218Z" stroke="white" stroke-width="1.5" stroke-miterlimit="10"/>
<path d="M35.1217 48.8727C42.7162 48.8727 48.8727 42.7162 48.8727 35.1217C48.8727 27.5272 42.7162 21.3706 35.1217 21.3706C27.5272 21.3706 21.3706 27.5272 21.3706 35.1217C21.3706 42.7162 27.5272 48.8727 35.1217 48.8727Z" fill="#01003F" stroke="white" stroke-width="2" stroke-miterlimit="10"/>
<path d="M36.8686 33.4346L41.5918 33.5276C41.7844 33.5343 41.8642 33.7734 41.7114 33.893L37.9448 36.7495L39.3132 41.2734C39.3664 41.4594 39.1604 41.6055 39.001 41.4993L35.1215 38.8022L31.242 41.4993C31.0825 41.6055 30.8766 41.4594 30.9297 41.2734L32.2982 36.7495L28.5316 33.893C28.3788 33.7801 28.4585 33.5343 28.6512 33.5276L33.3744 33.428L34.9222 28.9639C34.982 28.7845 35.2411 28.7845 35.3009 28.9639L36.8686 33.4346Z" fill="white"/>
</g>
<defs>
<linearGradient id="paint0_linear_2622_29840" x1="14.8841" y1="35.1245" x2="55.3646" y2="35.1245" gradientUnits="userSpaceOnUse">
<stop stop-color="#0059F9"/>
<stop offset="1" stop-color="#E306F8"/>
</linearGradient>
<clipPath id="clip0_2622_29840">
<rect width="70.25" height="70.25" fill="white"/>
</clipPath>
</defs>
</svg>
