<svg width="71" height="71" viewBox="0 0 71 71" fill="none" xmlns="http://www.w3.org/2000/svg">
<g clip-path="url(#clip0_2622_29770)">
<path d="M35.1217 70.2434C54.5188 70.2434 70.2434 54.5188 70.2434 35.1217C70.2434 15.7245 54.5188 0 35.1217 0C15.7245 0 0 15.7245 0 35.1217C0 54.5188 15.7245 70.2434 35.1217 70.2434Z" fill="white"/>
<path d="M37.4408 46.2487C38.0188 44.1694 37.9922 38.4298 37.9789 37.2939C37.9789 37.1942 38.0719 37.1278 38.1649 37.1544L51.6968 41.3196C52.2614 41.4923 52.8261 41.0738 52.8261 40.4825V38.5694C52.8261 38.2571 52.66 37.9648 52.381 37.812L37.8726 29.5614C37.8726 29.5614 37.8726 22.1876 37.8726 20.5202C37.8726 18.8528 36.1521 15.8369 35.1291 15.8369C34.106 15.8369 32.3855 18.8528 32.3855 20.5202C32.3855 22.1876 32.3855 29.5614 32.3855 29.5614L17.8572 37.8187C17.5848 37.9715 17.4121 38.2638 17.4121 38.576V40.4892C17.4121 41.0804 17.9834 41.4989 18.5414 41.3262L32.0733 37.161C32.1663 37.1345 32.2659 37.2009 32.2593 37.3005C32.246 38.4365 32.2194 44.1761 32.7974 46.2553" fill="#01003F"/>
<path d="M32.811 46.2491L29.5493 48.6805H29.1507C28.7056 48.6805 28.3469 49.0392 28.3469 49.4843V51.6234C28.3469 52.1614 28.8717 52.5534 29.3899 52.3939L34.1463 50.9258C34.1463 50.9258 35.1693 54.2473 36.1126 50.9258L40.869 52.3939C41.3872 52.5534 41.912 52.1681 41.912 51.6234V49.4843C41.912 49.0392 41.5533 48.6805 41.1082 48.6805H40.7096L37.4479 46.2491" fill="url(#paint0_linear_2622_29770)"/>
<path d="M27.2706 34.2518H26.8653C26.5598 34.2518 26.314 34.006 26.314 33.7004V31.4684C26.314 31.1628 26.5598 30.917 26.8653 30.917H27.2706C27.5761 30.917 27.8219 31.1628 27.8219 31.4684V33.7004C27.8153 34.006 27.5695 34.2518 27.2706 34.2518Z" fill="#01003F"/>
<path d="M43.3858 34.2518H42.9806C42.675 34.2518 42.4292 34.006 42.4292 33.7004V31.4684C42.4292 31.1628 42.675 30.917 42.9806 30.917H43.3858C43.6914 30.917 43.9372 31.1628 43.9372 31.4684V33.7004C43.9372 34.006 43.6914 34.2518 43.3858 34.2518Z" fill="#01003F"/>
</g>
<defs>
<linearGradient id="paint0_linear_2622_29770" x1="31.4189" y1="53.7623" x2="40.8496" y2="45.5985" gradientUnits="userSpaceOnUse">
<stop stop-color="#0059F9"/>
<stop offset="1" stop-color="#E306F8"/>
</linearGradient>
<clipPath id="clip0_2622_29770">
<rect width="70.25" height="70.25" fill="white"/>
</clipPath>
</defs>
</svg>
