<svg width="18" height="14" viewBox="0 0 18 14" fill="none" xmlns="http://www.w3.org/2000/svg">
<path d="M13.0817 5.78378C13.6544 5.78378 14.1186 5.31451 14.1186 4.73564C14.1186 4.15677 13.6544 3.6875 13.0817 3.6875C12.5091 3.6875 12.0449 4.15677 12.0449 4.73564C12.0449 5.31451 12.5091 5.78378 13.0817 5.78378Z" fill="white"/>
<path d="M4.01339 5.78378C4.58601 5.78378 5.05022 5.31451 5.05022 4.73564C5.05022 4.15677 4.58601 3.6875 4.01339 3.6875C3.44077 3.6875 2.97656 4.15677 2.97656 4.73564C2.97656 5.31451 3.44077 5.78378 4.01339 5.78378Z" fill="white"/>
<path d="M4.3044 6.1744H2.76487L0.691217 4.07812L0 4.77688L2.66014 7.46605V13.7549H3.69697V10.4728H4.38818V13.7655H5.42501V7.30724C5.39359 6.69318 4.92231 6.1744 4.3044 6.1744Z" fill="white"/>
<path d="M11.9482 0H10.7334V3.21853L10.2726 3.68436H6.84789L6.32424 3.18676V0H5.10938V3.68436L6.84789 5.42067V13.7528H8.13607V8.98858H8.98438V13.7528H10.2726V5.42067L11.9482 3.72671V0Z" fill="white"/>
<path d="M8.557 3.0286C9.26266 3.0286 9.83471 2.45031 9.83471 1.73696C9.83471 1.0236 9.26266 0.445312 8.557 0.445312C7.85134 0.445312 7.2793 1.0236 7.2793 1.73696C7.2793 2.45031 7.85134 3.0286 8.557 3.0286Z" fill="white"/>
<path d="M12.8179 6.1744H14.3574L16.4311 4.07812L17.1223 4.77688L14.4621 7.46605V13.7549H13.4253V10.4728H12.7341V13.7655H11.6973V7.30724C11.7287 6.69318 12.2 6.1744 12.8179 6.1744Z" fill="white"/>
</svg>
