<svg width="25" height="25" viewBox="0 0 25 25" fill="none" xmlns="http://www.w3.org/2000/svg">
<rect width="24.8462" height="24.8462" fill="url(#paint0_linear_2689_5380)"/>
<g clip-path="url(#clip0_2689_5380)">
<path d="M15.666 4.38428H9.91115C7.26298 4.38428 5.11548 6.53178 5.11548 9.17995V14.9348C5.11548 17.5829 7.26298 19.7304 9.91115 19.7304H15.666C18.3141 19.7304 20.4616 17.5829 20.4616 14.9348V9.17995C20.4616 6.53178 18.3141 4.38428 15.666 4.38428ZM19.0229 14.9348C19.0229 16.7859 17.5171 18.2917 15.666 18.2917H9.91115C8.06002 18.2917 6.55418 16.7859 6.55418 14.9348V9.17995C6.55418 7.32882 8.06002 5.82298 9.91115 5.82298H15.666C17.5171 5.82298 19.0229 7.32882 19.0229 9.17995V14.9348Z" fill="white"/>
<path d="M12.7884 8.2207C10.6697 8.2207 8.9519 9.93851 8.9519 12.0572C8.9519 14.176 10.6697 15.8938 12.7884 15.8938C14.9072 15.8938 16.625 14.176 16.625 12.0572C16.625 9.93851 14.9072 8.2207 12.7884 8.2207ZM12.7884 14.4551C11.4668 14.4551 10.3906 13.3789 10.3906 12.0572C10.3906 10.7346 11.4668 9.65941 12.7884 9.65941C14.1101 9.65941 15.1863 10.7346 15.1863 12.0572C15.1863 13.3789 14.1101 14.4551 12.7884 14.4551Z" fill="white"/>
<path d="M16.9128 8.44431C17.1952 8.44431 17.424 8.21543 17.424 7.93309C17.424 7.65075 17.1952 7.42188 16.9128 7.42188C16.6305 7.42188 16.4016 7.65075 16.4016 7.93309C16.4016 8.21543 16.6305 8.44431 16.9128 8.44431Z" fill="white"/>
</g>
<defs>
<linearGradient id="paint0_linear_2689_5380" x1="-5.23077" y1="26.8077" x2="28.4423" y2="4.35084e-08" gradientUnits="userSpaceOnUse">
<stop stop-color="#005AFF"/>
<stop offset="0.709872" stop-color="#F000FF"/>
</linearGradient>
<clipPath id="clip0_2689_5380">
<rect width="15.3462" height="15.3462" fill="white" transform="translate(5.11548 4.38428)"/>
</clipPath>
</defs>
</svg>
