<svg width="71" height="71" viewBox="0 0 71 71" fill="none" xmlns="http://www.w3.org/2000/svg">
<g clip-path="url(#clip0_2622_29780)">
<path d="M35.1217 70.2433C54.5188 70.2433 70.2433 54.5188 70.2433 35.1217C70.2433 15.7245 54.5188 0 35.1217 0C15.7245 0 0 15.7245 0 35.1217C0 54.5188 15.7245 70.2433 35.1217 70.2433Z" fill="white"/>
<path d="M35.1616 25.363C37.0474 25.363 38.5761 23.8342 38.5761 21.9485C38.5761 20.0627 37.0474 18.5339 35.1616 18.5339C33.2758 18.5339 31.7471 20.0627 31.7471 21.9485C31.7471 23.8342 33.2758 25.363 35.1616 25.363Z" fill="#01003F"/>
<path d="M31.7601 26.6783H38.9744L39.4727 28.2527V49.8891C39.4727 51.49 39.2534 51.7159 38.9744 51.7159H36.2176C35.9452 51.7159 35.7194 51.4967 35.7194 51.2177V39.0078H34.6764V51.2177C34.6764 51.49 34.4572 51.7159 34.1782 51.7159H31.4213C31.149 51.7159 30.9231 51.4967 30.9231 49.8891V27.3759L31.7601 26.6783Z" fill="#01003F"/>
<path d="M38.9945 29.6076L45.7903 21.3503C45.9365 21.171 45.9099 20.9119 45.7305 20.7657L44.103 19.4305C43.9236 19.2843 43.6646 19.3109 43.5184 19.4903L36.7292 27.7476L38.9945 29.6076Z" fill="#01003F"/>
<path d="M31.4148 29.6078L24.619 21.3572C24.4728 21.1778 24.4994 20.9187 24.6788 20.7726L26.3063 19.4373C26.4857 19.2912 26.7447 19.3178 26.8909 19.4971L33.6867 27.7544L31.4148 29.6078Z" fill="#01003F"/>
<path d="M23.1574 30.7838C24.6543 30.7838 25.8677 29.5703 25.8677 28.0734C25.8677 26.5765 24.6543 25.363 23.1574 25.363C21.6605 25.363 20.447 26.5765 20.447 28.0734C20.447 29.5703 21.6605 30.7838 23.1574 30.7838Z" fill="#01003F"/>
<path d="M20.454 31.8267H26.1803L26.5722 33.0755V50.2611C26.5722 51.5365 26.3929 51.7092 26.1803 51.7092H23.9947C23.7755 51.7092 23.6028 51.5299 23.6028 51.3173V41.6185H22.7724V51.3173C22.7724 51.5365 22.593 51.7092 22.3805 51.7092H20.1949C19.9757 51.7092 19.803 51.5299 19.803 50.2611V32.3847L20.454 31.8267Z" fill="#01003F"/>
<path d="M26.2002 34.1583L31.5943 27.6017C31.7072 27.4622 31.6873 27.2562 31.5478 27.1367L30.2591 26.0738C30.1195 25.9608 29.9136 25.9808 29.794 26.1203L24.3999 32.677L26.2002 34.1583Z" fill="#01003F"/>
<path d="M20.1815 34.1583L14.7874 27.6017C14.6745 27.4622 14.6944 27.2562 14.8339 27.1367L16.1227 26.0738C16.2622 25.9608 16.4681 25.9808 16.5877 26.1203L21.9818 32.677L20.1815 34.1583Z" fill="#01003F"/>
<path d="M47.0258 30.7838C48.5227 30.7838 49.7361 29.5703 49.7361 28.0734C49.7361 26.5765 48.5227 25.363 47.0258 25.363C45.5289 25.363 44.3154 26.5765 44.3154 28.0734C44.3154 29.5703 45.5289 30.7838 47.0258 30.7838Z" fill="#01003F"/>
<path d="M44.329 31.8267H50.0553L50.4472 33.0755V50.2611C50.4472 51.5365 50.2679 51.7092 50.0553 51.7092H47.8697C47.6505 51.7092 47.4778 51.5299 47.4778 51.3173V41.6185H46.6474V51.3173C46.6474 51.5365 46.468 51.7092 46.2555 51.7092H44.0699C43.8507 51.7092 43.678 51.5299 43.678 50.2611V32.3847L44.329 31.8267Z" fill="#01003F"/>
<path d="M50.0686 34.1583L55.4627 27.6017C55.5756 27.4622 55.5557 27.2562 55.4162 27.1367L54.1275 26.0738C53.988 25.9608 53.782 25.9808 53.6624 26.1203L48.2683 32.677L50.0686 34.1583Z" fill="#01003F"/>
<path d="M44.0499 34.1583L38.6558 27.6017C38.5429 27.4622 38.5628 27.2562 38.7023 27.1367L39.9911 26.0738C40.1306 25.9608 40.3365 25.9808 40.4561 26.1203L45.8502 32.677L44.0499 34.1583Z" fill="#01003F"/>
<path d="M52.4465 48.0621C55.9209 48.0621 58.7374 45.2456 58.7374 41.7712C58.7374 38.2968 55.9209 35.4802 52.4465 35.4802C48.9721 35.4802 46.1555 38.2968 46.1555 41.7712C46.1555 45.2456 48.9721 48.0621 52.4465 48.0621Z" fill="url(#paint0_linear_2622_29780)"/>
<path d="M53.3965 40.8146L55.974 40.8611C56.1002 40.8611 56.1467 41.0205 56.0471 41.0936L53.9678 42.6215L54.7185 45.0927C54.7517 45.2123 54.6188 45.3119 54.5192 45.2388L52.42 43.7309L50.3009 45.2123C50.2012 45.2853 50.0617 45.1857 50.1016 45.0661L50.8854 42.6082L48.8261 41.0537C48.7265 40.9807 48.7796 40.8212 48.9058 40.8212L51.49 40.8079L52.3336 38.37C52.3735 38.2504 52.5396 38.2504 52.5794 38.37L53.3965 40.8146Z" fill="white"/>
</g>
<defs>
<linearGradient id="paint0_linear_2622_29780" x1="46.158" y1="41.7722" x2="58.7381" y2="41.7722" gradientUnits="userSpaceOnUse">
<stop stop-color="#0059F9"/>
<stop offset="1" stop-color="#E306F8"/>
</linearGradient>
<clipPath id="clip0_2622_29780">
<rect width="70.25" height="70.25" fill="white"/>
</clipPath>
</defs>
</svg>
