<svg width="71" height="71" viewBox="0 0 71 71" fill="none" xmlns="http://www.w3.org/2000/svg">
<g clip-path="url(#clip0_2622_29810)">
<path d="M35.1217 70.2433C54.5188 70.2433 70.2433 54.5188 70.2433 35.1217C70.2433 15.7245 54.5188 0 35.1217 0C15.7245 0 0 15.7245 0 35.1217C0 54.5188 15.7245 70.2433 35.1217 70.2433Z" fill="white"/>
<path d="M51.9088 37.905H29.8274C29.4089 37.905 29.0701 37.5662 29.0701 37.1477V17.471C29.0701 17.0525 29.4089 16.7137 29.8274 16.7137H51.9088C52.3273 16.7137 52.6661 17.0525 52.6661 17.471V37.1477C52.6661 37.5662 52.3273 37.905 51.9088 37.905Z" fill="url(#paint0_linear_2622_29810)"/>
<path d="M46.893 31.076C44.8137 34.4042 40.4294 35.4139 37.1012 33.3347C33.773 31.2554 32.7633 26.871 34.8426 23.5428C36.9218 20.2147 41.3062 19.205 44.6344 21.2842C47.9625 23.3635 48.9723 27.7545 46.893 31.076Z" fill="url(#paint1_linear_2622_29810)"/>
<path d="M39.6854 30.7437L37.1743 28.2459L38.3236 27.0967L39.6787 28.4452L43.6446 24.4528L44.7939 25.5954L39.6854 30.7437Z" fill="white"/>
<path d="M22.7856 25.3897C24.6714 25.3897 26.2001 23.861 26.2001 21.9752C26.2001 20.0894 24.6714 18.5607 22.7856 18.5607C20.8998 18.5607 19.3711 20.0894 19.3711 21.9752C19.3711 23.861 20.8998 25.3897 22.7856 25.3897Z" fill="#01003F"/>
<path d="M35.7461 27.1302V29.1896C35.7461 29.4221 35.5535 29.6147 35.321 29.6147H27.0969V51.2577C27.0969 51.5301 26.8777 51.7559 26.5987 51.7559H23.8418C23.5695 51.7559 23.3436 51.5367 23.3436 51.2577V40.3631H22.3006V51.2511C22.3006 51.5234 22.0814 51.7493 21.8024 51.7493H19.0456C18.7732 51.7493 18.5473 51.5301 18.5473 51.2511V35.9123V35.2613V34.5704L16.2422 40.3897C16.1559 40.6023 15.9233 40.7086 15.7041 40.6355L13.8906 39.9911C13.6647 39.9114 13.5518 39.659 13.6381 39.4398L18.255 27.4757C18.4344 27.0107 18.8795 26.7051 19.3777 26.7051H26.592H35.3143C35.5535 26.7051 35.7461 26.8911 35.7461 27.1302Z" fill="#01003F"/>
<path d="M22.832 27.2429L23.7289 28.1331L23.0181 28.8372L23.7289 34.7296L22.7855 35.5401L21.8489 34.7296L22.5597 28.8372L21.8489 28.1331L22.739 27.2429" fill="white"/>
<path d="M32.7302 45.9233C33.7612 45.9233 34.5969 45.0876 34.5969 44.0566C34.5969 43.0257 33.7612 42.1899 32.7302 42.1899C31.6993 42.1899 30.8635 43.0257 30.8635 44.0566C30.8635 45.0876 31.6993 45.9233 32.7302 45.9233Z" fill="#01003F"/>
<path d="M36.0383 51.7293H29.4285V48.5938C29.4285 47.5841 30.2456 46.767 31.2553 46.767H34.2181C35.2278 46.767 36.0449 47.5841 36.0449 48.5938V51.7293H36.0383Z" fill="#01003F"/>
<path d="M40.6155 45.9233C41.6464 45.9233 42.4822 45.0876 42.4822 44.0566C42.4822 43.0257 41.6464 42.1899 40.6155 42.1899C39.5845 42.1899 38.7488 43.0257 38.7488 44.0566C38.7488 45.0876 39.5845 45.9233 40.6155 45.9233Z" fill="#01003F"/>
<path d="M43.9172 51.7293H37.3074V48.5938C37.3074 47.5841 38.1245 46.767 39.1342 46.767H42.097C43.1067 46.767 43.9238 47.5841 43.9238 48.5938V51.7293H43.9172Z" fill="#01003F"/>
<path d="M48.8196 45.9233C49.8505 45.9233 50.6863 45.0876 50.6863 44.0566C50.6863 43.0257 49.8505 42.1899 48.8196 42.1899C47.7886 42.1899 46.9529 43.0257 46.9529 44.0566C46.9529 45.0876 47.7886 45.9233 48.8196 45.9233Z" fill="#01003F"/>
<path d="M52.1276 51.7293H45.5178V48.5938C45.5178 47.5841 46.3349 46.767 47.3447 46.767H50.3074C51.3172 46.767 52.1343 47.5841 52.1343 48.5938V51.7293H52.1276Z" fill="#01003F"/>
</g>
<defs>
<linearGradient id="paint0_linear_2622_29810" x1="29.0722" y1="27.311" x2="52.665" y2="27.311" gradientUnits="userSpaceOnUse">
<stop offset="0.0251" stop-color="#C2D3ED"/>
<stop offset="1" stop-color="#C2D3ED"/>
</linearGradient>
<linearGradient id="paint1_linear_2622_29810" x1="33.761" y1="27.3111" x2="47.9757" y2="27.3111" gradientUnits="userSpaceOnUse">
<stop stop-color="#0059F9"/>
<stop offset="1" stop-color="#E306F8"/>
</linearGradient>
<clipPath id="clip0_2622_29810">
<rect width="70.25" height="70.25" fill="white"/>
</clipPath>
</defs>
</svg>
