<svg width="128" height="40" viewBox="0 0 128 40" fill="none" xmlns="http://www.w3.org/2000/svg">
<path d="M57.429 19.2582C57.429 20.2145 56.5721 20.865 54.9324 20.865C53.7701 20.865 52.7976 20.5397 52.0859 19.956L52.7768 19.1192C53.3135 19.5835 54.0548 19.842 54.9591 19.842C55.733 19.842 56.1214 19.6947 56.1214 19.3917C56.1214 19.0942 55.7597 18.9941 54.8316 18.9135C53.4884 18.794 52.2698 18.4882 52.2698 17.4541C52.2698 16.4589 53.3164 15.9141 54.7486 15.9141C55.7152 15.9141 56.6077 16.1531 57.2274 16.6035L56.5632 17.4458C56.0592 17.0816 55.4543 16.9343 54.7516 16.9287C54.2238 16.9287 53.5833 17.0149 53.5833 17.3457C53.5833 17.657 54.1052 17.6987 54.9117 17.7627C56.3824 17.8905 57.429 18.1908 57.429 19.2582Z" fill="white"/>
<path d="M64.281 19.6751V20.7092H59.4597V16.0669H64.2098V17.101H60.7584V17.8655H63.6049V18.8551H60.7584V19.6779H64.281V19.6751Z" fill="white"/>
<path d="M70.2766 19.0527L71.4063 19.6503C70.9882 20.3342 70.0779 20.8651 68.8563 20.8651C67.1514 20.8651 66.0039 19.9561 66.0039 18.3911C66.0039 16.826 67.1514 15.917 68.9067 15.917C70.075 15.917 70.9764 16.4618 71.3855 17.1234L70.2499 17.7211C69.9534 17.243 69.4938 17.0178 68.8889 17.0178C67.9609 17.0178 67.3412 17.5015 67.3412 18.3911C67.3412 19.2806 67.9609 19.7643 68.8889 19.7643C69.4968 19.7615 69.9593 19.5503 70.2766 19.0527Z" fill="white"/>
<path d="M77.9828 17.1483H76.1059V20.712H74.7894V17.1483H72.9243V16.0669H77.9828V17.1483Z" fill="white"/>
<path d="M79.4978 18.3881C79.4978 16.8147 80.6542 15.9141 82.4392 15.9141C84.2271 15.9141 85.3865 16.8175 85.3865 18.3881C85.3865 19.9615 84.2242 20.8622 82.4392 20.8622C80.6542 20.865 79.4978 19.9615 79.4978 18.3881ZM84.0463 18.3881C84.0463 17.5125 83.4325 17.0149 82.4392 17.0149C81.4518 17.0149 80.8321 17.5125 80.8321 18.3881C80.8321 19.2638 81.4459 19.7614 82.4392 19.7614C83.4355 19.7614 84.0463 19.2638 84.0463 18.3881Z" fill="white"/>
<path d="M91.3141 20.712L90.1192 19.2443H88.7908V20.712H87.4802V16.0669H90.6469C91.8033 16.0669 92.6988 16.5923 92.6988 17.6542C92.6988 18.4298 92.2214 18.9218 91.5128 19.1331L92.8411 20.712H91.3141V20.712ZM90.5521 18.263C91.0235 18.263 91.3645 18.1295 91.3645 17.6792C91.3645 17.2289 91.0235 17.0954 90.5521 17.0954H88.7849V18.263H90.5521Z" fill="white"/>
<path d="M56.1835 29.1213H53.7047L53.2777 30.0109H51.896L54.2325 25.3657H55.6706L58.007 30.0109H56.6075L56.1835 29.1213ZM55.7239 28.1567L54.9441 26.511L54.1584 28.1567H55.7239Z" fill="white"/>
<path d="M64.6164 28.9738V30.0079H59.7952V25.3628H64.5452V26.3969H61.0939V27.1614H63.9404V28.151H61.0939V28.9738H64.6164V28.9738Z" fill="white"/>
<path d="M70.5348 30.0079L69.3399 28.5402H68.0115V30.0079H66.7009V25.3628H69.8676C71.024 25.3628 71.9195 25.8882 71.9195 26.9501C71.9195 27.7257 71.4421 28.2177 70.7334 28.429L72.0618 30.0079H70.5348V30.0079ZM69.7728 27.5617C70.2442 27.5617 70.5852 27.4282 70.5852 26.9779C70.5852 26.5276 70.2442 26.3941 69.7728 26.3941H68.0056V27.5617H69.7728V27.5617Z" fill="white"/>
<path d="M73.7429 27.6865C73.7429 26.1131 74.8993 25.2124 76.6843 25.2124C78.4722 25.2124 79.6316 26.1159 79.6316 27.6865C79.6316 29.2599 78.4693 30.1605 76.6843 30.1605C74.8963 30.1605 73.7429 29.2599 73.7429 27.6865ZM78.2914 27.6865C78.2914 26.8108 77.6776 26.3132 76.6843 26.3132C75.6969 26.3132 75.0772 26.8108 75.0772 27.6865C75.0772 28.5621 75.691 29.0597 76.6843 29.0597C77.6776 29.0597 78.2914 28.5621 78.2914 27.6865Z" fill="white"/>
<path d="M87.068 25.3628V30.0079H85.9116L82.994 26.9556V30.0079H81.7219V25.3628H83.1155L85.793 28.2038V25.3628H87.068Z" fill="white"/>
<path d="M93.1462 29.1208H90.6673L90.2404 30.0104H88.8586L91.1951 25.3652H92.6332L94.9697 30.0104H93.5702L93.1462 29.1208ZM92.6866 28.1562L91.9068 26.5105L91.121 28.1562H92.6866ZM92.1084 24.8315H91.1714L92.055 23.7168H93.6354L92.1084 24.8315Z" fill="white"/>
<path d="M101.65 25.3628V27.8174C101.65 29.2296 100.713 30.1608 99.0321 30.1608C97.3479 30.1608 96.405 29.2323 96.405 27.8174V25.3628H97.7215V27.7118C97.7215 28.5207 98.1604 29.0461 99.0321 29.0461C99.9038 29.0461 100.337 28.5207 100.337 27.7118V25.3628H101.65Z" fill="white"/>
<path d="M108.556 26.4471H106.679V30.0109H105.362V26.4471H103.497V25.3657H108.556V26.4471Z" fill="white"/>
<path d="M110.474 30.0079V25.3628H111.791V30.0079H110.474V30.0079Z" fill="white"/>
<path d="M118.157 28.351L119.287 28.9487C118.869 29.6325 117.958 30.1635 116.737 30.1635C115.032 30.1635 113.884 29.2545 113.884 27.6894C113.884 26.1243 115.032 25.2153 116.787 25.2153C117.955 25.2153 118.857 25.7602 119.266 26.4218L118.13 27.0195C117.834 26.5413 117.374 26.3162 116.769 26.3162C115.841 26.3162 115.222 26.7998 115.222 27.6894C115.222 28.579 115.841 29.0626 116.769 29.0626C117.377 29.0599 117.843 28.8486 118.157 28.351Z" fill="white"/>
<path d="M120.927 27.6865C120.927 26.1131 122.083 25.2124 123.868 25.2124C125.653 25.2124 126.815 26.1159 126.815 27.6865C126.815 29.2599 125.653 30.1605 123.868 30.1605C122.083 30.1605 120.927 29.2599 120.927 27.6865ZM125.475 27.6865C125.475 26.8108 124.861 26.3132 123.868 26.3132C122.881 26.3132 122.261 26.8108 122.261 27.6865C122.261 28.5621 122.875 29.0597 123.868 29.0597C124.864 29.0597 125.475 28.5621 125.475 27.6865Z" fill="white"/>
<path d="M15.4778 16.0532H1.52703C1.15639 16.0532 0.990345 16.4924 1.28092 16.7093L11.4453 24.3288L5.49135 36.5324C5.2838 36.9577 5.69594 37.4164 6.17925 37.2968L15.4541 34.9951L20.0885 25.4992L15.4778 16.0532Z" fill="url(#paint0_linear_2622_30155)"/>
<path d="M44.3259 16.0528H30.3692L23.2827 1.53359C23.1433 1.24727 22.7074 1.24727 22.5681 1.53359L17.6431 11.6328L28.857 34.611L39.6767 37.2964C40.157 37.4159 40.5692 36.9572 40.3646 36.5319L34.4107 24.3284L44.575 16.7088C44.8596 16.492 44.6966 16.0528 44.3259 16.0528Z" fill="white"/>
<defs>
<linearGradient id="paint0_linear_2622_30155" x1="1.13281" y1="26.6889" x2="20.0891" y2="26.6889" gradientUnits="userSpaceOnUse">
<stop stop-color="#005AFF"/>
<stop offset="0.0930329" stop-color="#0757FF"/>
<stop offset="0.2253" stop-color="#1950FF"/>
<stop offset="0.3812" stop-color="#3845FF"/>
<stop offset="0.555" stop-color="#6335FF"/>
<stop offset="0.7437" stop-color="#9A20FF"/>
<stop offset="0.9419" stop-color="#DB08FF"/>
<stop offset="1" stop-color="#F000FF"/>
</linearGradient>
</defs>
</svg>

